<?xml version="1.0" encoding="iso-8859-1"?>
<!-- Uploaded to: SVG Repo, www.svgrepo.com, Generator: SVG Repo Mixer Tools -->
<svg fill="#ed9324" height="800px" width="800px" version="1.1" id="Layer_1" xmlns="http://www.w3.org/2000/svg" xmlns:xlink="http://www.w3.org/1999/xlink" 
	 viewBox="0 0 512.001 512.001" xml:space="preserve">
<g>
	<g>
		<path d="M478.323,386.002c7.3-8.065,11.81-19.064,11.81-31.179v-19.518c0-17.561-9.464-32.782-23.195-40.106v-53.904
			c13.708-2.732,24.073-14.854,24.073-29.354v-5.069C491.01,92.803,398.206,0,284.135,0h-56.271
			C113.794,0,20.991,92.803,20.991,206.874v5.069c0,16.505,13.427,29.932,29.933,29.932h323.253c5.264,0,9.53-4.267,9.53-9.53
			s-4.266-9.53-9.53-9.53H50.923c-5.995,0-10.873-4.877-10.873-10.872v-5.069C40.051,103.313,124.304,19.06,227.864,19.06h56.271
			c103.562,0,187.815,84.252,187.815,187.814v5.069c0,5.995-4.878,10.872-10.873,10.872h-48.779c-5.264,0-9.53,4.267-9.53,9.53
			s4.266,9.53,9.53,9.53h35.579v48.681H66.572v-26.444c0-5.263-4.266-9.53-9.53-9.53c-5.264,0-9.53,4.267-9.53,9.53v29.883
			c-15.042,6.752-25.642,22.725-25.642,41.311v19.518c0,12.115,4.51,23.112,11.81,31.179c-7.669,5.426-12.689,14.356-12.689,24.444
			v38.425c0,34.81,28.32,63.13,63.13,63.13h27.026c5.264,0,9.53-4.267,9.53-9.53c0-5.263-4.266-9.53-9.53-9.53H84.12
			c-24.299,0-44.07-19.769-44.07-44.07v-38.425c0-5.995,4.878-10.873,10.873-10.873h12.581h384.99h12.581
			c5.995,0,10.873,4.877,10.873,10.873v38.425c0,24.3-19.771,44.07-44.071,44.07H141.643c-5.264,0-9.53,4.267-9.53,9.53
			c0,5.263,4.266,9.53,9.53,9.53H427.88c34.812,0,63.131-28.32,63.131-63.13v-38.425
			C491.012,400.359,485.991,391.428,478.323,386.002z M388.91,309.615l-34.348,34.349l-34.35-34.349H388.91z M471.073,354.822
			h-0.001c0,14.164-10.127,25.689-22.576,25.689H63.505c-12.449,0-22.576-11.524-22.576-25.689v-19.518
			c0-14.164,10.127-25.689,22.576-25.689h229.752l54.566,54.564c1.862,1.86,4.301,2.792,6.74,2.792s4.878-0.93,6.74-2.792
			l54.316-54.316l-0.248-0.248h33.127c12.449,0,22.576,11.524,22.576,25.689V354.822z"/>
	</g>
</g>
<g>
	<g>
		<circle cx="156.421" cy="64.545" r="9.53"/>
	</g>
</g>
<g>
	<g>
		<circle cx="222.802" cy="64.545" r="9.53"/>
	</g>
</g>
<g>
	<g>
		<circle cx="289.195" cy="64.545" r="9.53"/>
	</g>
</g>
<g>
	<g>
		<circle cx="355.588" cy="64.545" r="9.53"/>
	</g>
</g>
</svg>