<?xml version="1.0" ?><!-- Uploaded to: SVG Repo, www.svgrepo.com, Generator: SVG Repo Mixer Tools -->
<svg fill="#457ee7" width="800px" height="800px" viewBox="0 0 32 32" id="glass" version="1.1" xml:space="preserve" xmlns="http://www.w3.org/2000/svg" xmlns:xlink="http://www.w3.org/1999/xlink"><path d="M25.7,2.3C25.6,2.1,25.3,2,25,2H7C6.7,2,6.4,2.1,6.3,2.3C6.1,2.6,6,2.8,6,3.1l2.7,22.5c0.2,2.5,1.7,4.3,3.5,4.3h7.5  c1.8,0,3.3-1.8,3.5-4.3L26,3.1C26,2.8,25.9,2.6,25.7,2.3z M21.4,24H10.6L8.9,10.7c0.4-0.7,1.5-2.5,3.3-3.2c1-0.4,2.1-0.3,3.3,0.3  c3.4,1.7,6.1,1.4,7.7,0.8L21.4,24z M23.9,4l-0.3,2.4c-0.9,0.5-3.4,1.6-7.1-0.3c-1.7-0.8-3.3-1-4.9-0.4c-1.3,0.4-2.3,1.3-3,2.1L8.1,4  H23.9z M19.8,28h-7.5c-0.6,0-1.2-0.8-1.4-2h10.4C21,27.2,20.3,28,19.8,28z"/></svg>